# xmcd
# 
# Track frame offsets:
#     183
#     23130
#     34218
#     51130
#     64813
#     82830
# 
# Disc length: 2052
# 
# Revision: 3
# Processed by: cddbd v1.5.2PL0 Copyright (c) Steve Scherf et al.
# Submitted via: fre:ac v1.0.17
# 
DISCID=43080206
DTITLE=Johnny Rivers - John Lee Hooker
DYEAR=1970
DGENRE=Rock
TTITLE0=C. C. Rider got my mojo working
TTITLE1=Sunny
TTITLE2=It's too late
TTITLE3=A hard day's night
TTITLE4=When a man loves a woman
TTITLE5=John Lee Hooker
EXTD=
EXTT0=
EXTT1=
EXTT2=
EXTT3=
EXTT4=
EXTT5=
PLAYORDER=
